<svg width="25" height="25" viewBox="0 0 25 25" fill="none" xmlns="http://www.w3.org/2000/svg">
<path d="M12.5 0C5.59651 0 0 5.59651 0 12.5C0 19.4035 5.59651 25 12.5 25C19.4035 25 25 19.4035 25 12.5C25 5.59651 19.4035 0 12.5 0ZM16.1725 7.16484C15.5784 7.16484 14.9804 7.16484 14.3865 7.16484C14.0105 7.1405 13.6227 7.42745 13.554 7.80337C13.5459 8.45408 13.5499 9.10453 13.5499 9.75523C14.4227 9.75929 15.2957 9.75523 16.1687 9.75929C16.1041 10.7007 15.987 11.6384 15.8496 12.5679C15.0777 12.576 14.3058 12.5679 13.534 12.572C13.5259 15.3482 13.538 18.1203 13.5299 20.8968C12.3821 20.9008 11.2386 20.8927 10.0908 20.9008C10.0706 18.1246 10.0909 15.3484 10.0787 12.572C9.52101 12.5679 8.95928 12.576 8.40161 12.5679C8.40566 11.6343 8.40161 10.701 8.40161 9.77146C8.95928 9.76334 9.52101 9.77146 10.0787 9.7674C10.0949 8.86219 10.0625 7.95293 10.0949 7.04773C10.1555 6.32427 10.4262 5.60107 10.9639 5.10398C11.6146 4.48572 12.5357 4.27558 13.4088 4.25125C14.3302 4.24314 15.2516 4.24719 16.1728 4.24719C16.1766 5.22109 16.1766 6.19094 16.1725 7.16484Z" fill="white"/>
</svg>
