<svg width="25" height="25" viewBox="0 0 25 25" fill="none" xmlns="http://www.w3.org/2000/svg">
<path d="M15.7571 6.20312H9.18086C7.53521 6.20312 6.19629 7.54205 6.19629 9.18769V15.8243C6.19629 17.4699 7.53521 18.8088 9.18086 18.8088H15.7571C17.4027 18.8088 18.7417 17.4699 18.7417 15.8243V9.18769C18.7417 7.54205 17.4027 6.20312 15.7571 6.20312ZM12.4815 16.4798C10.2508 16.4798 8.43611 14.6843 8.43611 12.4775C8.43611 10.2706 10.2511 8.47514 12.4815 8.47514C14.712 8.47514 16.5269 10.2706 16.5269 12.4775C16.5269 14.6843 14.7122 16.4798 12.4815 16.4798ZM16.5989 9.26323C16.0732 9.26323 15.6471 8.83712 15.6471 8.31138C15.6471 7.78565 16.0732 7.35954 16.5989 7.35954C17.1247 7.35954 17.5508 7.78565 17.5508 8.31138C17.5508 8.83712 17.1247 9.26323 16.5989 9.26323Z" fill="white"/>
<path d="M12.5 0C5.59651 0 0 5.59651 0 12.5C0 19.4035 5.59651 25 12.5 25C19.4035 25 25 19.4035 25 12.5C25 5.59651 19.4035 0 12.5 0ZM20.218 15.824C20.218 18.2838 18.2167 20.2849 15.7571 20.2849H9.18083C6.72098 20.2849 4.71995 18.2836 4.71995 15.824V9.18742C4.71995 6.72757 6.72123 4.72654 9.18083 4.72654H15.7571C18.2169 4.72654 20.218 6.72782 20.218 9.18742V15.824Z" fill="white"/>
<path d="M12.4816 9.94824C11.0633 9.94824 9.90967 11.0826 9.90967 12.477C9.90967 13.8715 11.0633 15.0058 12.4816 15.0058C13.8998 15.0058 15.0534 13.8715 15.0534 12.477C15.0534 11.0826 13.8998 9.94824 12.4816 9.94824Z" fill="white"/>
</svg>
