<svg width="40" height="41" viewBox="0 0 40 41" fill="none" xmlns="http://www.w3.org/2000/svg">
<path d="M33.7633 28.0448C32.2015 28.0458 30.6971 28.6334 29.548 29.6912C28.3989 30.7489 27.689 32.1996 27.5589 33.756H8.89884C8.63161 33.7551 8.3705 33.6758 8.14788 33.528C7.92526 33.3802 7.75091 33.1702 7.64644 32.9243C7.54197 32.6783 7.51198 32.4071 7.56017 32.1442C7.60836 31.8814 7.73262 31.6384 7.91756 31.4455L31.0998 10.7191C31.5133 10.3131 31.7965 9.79317 31.9134 9.2256C32.0302 8.65803 31.9755 8.06851 31.756 7.53218C31.5366 6.99585 31.1625 6.53701 30.6813 6.21413C30.2001 5.89124 29.6336 5.71895 29.0542 5.7192H12.4398C12.3098 4.13975 11.5827 2.66921 10.4067 1.60691C9.2306 0.544611 7.69393 -0.0295941 6.10943 0.00117567C4.52493 0.0319454 3.01171 0.665377 1.87778 1.77253C0.743854 2.87969 0.0744567 4.37735 0.00584648 5.96066C-0.0627637 7.54397 0.47457 9.09392 1.50847 10.295C2.54237 11.4961 3.99513 12.2581 5.57103 12.4258C7.14693 12.5935 8.72751 12.1544 9.99105 11.1978C11.2546 10.2412 12.1061 8.83909 12.3723 7.2768H29.0542C29.3214 7.27767 29.5825 7.35693 29.8051 7.50477C30.0277 7.65261 30.2021 7.86252 30.3066 8.10849C30.411 8.35446 30.441 8.62568 30.3928 8.88853C30.3446 9.15139 30.2204 9.39433 30.0354 9.58724L6.8532 30.3137C6.43972 30.7197 6.1565 31.2396 6.03963 31.8072C5.92276 32.3747 5.97753 32.9643 6.19696 33.5006C6.41639 34.0369 6.79055 34.4958 7.27174 34.8186C7.75293 35.1415 8.31936 35.3138 8.89884 35.3136H27.6264C27.8244 36.4851 28.3533 37.5755 29.1506 38.4564C29.948 39.3372 30.9806 39.9717 32.1266 40.285C33.2727 40.5983 34.4845 40.5774 35.6191 40.2247C36.7536 39.872 37.7637 39.2023 38.5302 38.2944C39.2967 37.3866 39.7876 36.2785 39.945 35.1009C40.1025 33.9232 39.92 32.7251 39.4189 31.6478C38.9179 30.5705 38.1193 29.6589 37.1172 29.0205C36.1151 28.3821 34.9514 28.0436 33.7633 28.0448ZM6.24573 10.9112C5.32154 10.9112 4.41811 10.6371 3.64967 10.1237C2.88123 9.61024 2.28231 8.88044 1.92864 8.0266C1.57496 7.17276 1.48243 6.23322 1.66273 5.32679C1.84303 4.42035 2.28807 3.58774 2.94157 2.93424C3.59507 2.28074 4.42768 1.8357 5.33412 1.6554C6.24055 1.4751 7.18009 1.56763 8.03393 1.92131C8.88778 2.27498 9.61757 2.8739 10.131 3.64234C10.6445 4.41078 10.9185 5.31421 10.9185 6.2384C10.9185 7.4777 10.4262 8.66625 9.5499 9.54257C8.67358 10.4189 7.48504 10.9112 6.24573 10.9112ZM33.7633 38.948C32.8391 38.948 31.9357 38.6739 31.1672 38.1604C30.3988 37.647 29.7999 36.9172 29.4462 36.0634C29.0925 35.2095 29 34.27 29.1803 33.3635C29.3606 32.4571 29.8056 31.6245 30.4591 30.971C31.1126 30.3175 31.9452 29.8725 32.8517 29.6922C33.7581 29.5119 34.6977 29.6044 35.5515 29.9581C36.4053 30.3117 37.1351 30.9107 37.6486 31.6791C38.162 32.4475 38.4361 33.351 38.4361 34.2752C38.4361 35.5145 37.9438 36.703 37.0675 37.5793C36.1911 38.4556 35.0026 38.948 33.7633 38.948Z" fill="#DC0C1C"/>
<path d="M36.3022 32.0427C36.1562 31.8969 35.9583 31.8149 35.7519 31.8149C35.5455 31.8149 35.3476 31.8969 35.2015 32.0427L33.862 33.3822L32.5173 32.0427C32.3696 31.9051 32.1744 31.8302 31.9726 31.8338C31.7709 31.8374 31.5783 31.9191 31.4357 32.0618C31.293 32.2045 31.2112 32.397 31.2077 32.5987C31.2041 32.8005 31.279 32.9958 31.4166 33.1434L32.7561 34.4829L31.4166 35.8329C31.3401 35.9042 31.2787 35.9901 31.2361 36.0857C31.1936 36.1812 31.1707 36.2843 31.1688 36.3889C31.167 36.4935 31.1862 36.5973 31.2254 36.6943C31.2646 36.7913 31.3229 36.8794 31.3968 36.9533C31.4708 37.0273 31.5589 37.0856 31.6558 37.1248C31.7528 37.1639 31.8567 37.1832 31.9612 37.1813C32.0658 37.1795 32.1689 37.1566 32.2645 37.114C32.36 37.0714 32.446 37.0101 32.5173 36.9336L33.8568 35.594L35.1963 36.9336C35.3423 37.0802 35.5406 37.1629 35.7475 37.1634C35.9544 37.1638 36.153 37.0821 36.2996 36.9362C36.4463 36.7902 36.529 36.592 36.5294 36.385C36.5299 36.1781 36.4482 35.9795 36.3022 35.8329L34.9627 34.4933L36.3022 33.1538C36.376 33.0813 36.4346 32.9948 36.4746 32.8995C36.5146 32.8041 36.5352 32.7017 36.5352 32.5982C36.5352 32.4948 36.5146 32.3924 36.4746 32.297C36.4346 32.2016 36.376 32.1152 36.3022 32.0427Z" fill="#DC0C1C"/>
<path d="M6.2456 8.05578C7.24921 8.05578 8.0628 7.24219 8.0628 6.23858C8.0628 5.23497 7.24921 4.42139 6.2456 4.42139C5.24199 4.42139 4.42841 5.23497 4.42841 6.23858C4.42841 7.24219 5.24199 8.05578 6.2456 8.05578Z" fill="#DC0C1C"/>
</svg>
