<svg width="50" height="33" viewBox="0 0 50 33" fill="none" xmlns="http://www.w3.org/2000/svg">
<path d="M49.1477 15.9091H44.8864V8.80682C44.8864 8.58078 44.7966 8.364 44.6367 8.20417C44.4769 8.04434 44.2601 7.95455 44.0341 7.95455H30.6818V0.852273C30.6818 0.626236 30.592 0.409457 30.4322 0.249625C30.2724 0.0897932 30.0556 0 29.8295 0H0.852273C0.626236 0 0.409457 0.0897932 0.249625 0.249625C0.0897927 0.409457 0 0.626236 0 0.852273V27.5568C0 27.7829 0.0897927 27.9996 0.249625 28.1595C0.409457 28.3193 0.626236 28.4091 0.852273 28.4091H7.34091C7.45693 29.4741 7.96216 30.4587 8.75963 31.174C9.55711 31.8893 10.5907 32.2849 11.6619 32.2849C12.7332 32.2849 13.7668 31.8893 14.5642 31.174C15.3617 30.4587 15.8669 29.4741 15.983 28.4091H35.0455C35.1616 29.4755 35.6674 30.4615 36.466 31.1778C37.2645 31.8941 38.2994 32.2903 39.3722 32.2903C40.4449 32.2903 41.4798 31.8941 42.2784 31.1778C43.0769 30.4615 43.5828 29.4755 43.6989 28.4091H49.1477C49.3738 28.4091 49.5905 28.3193 49.7504 28.1595C49.9102 27.9996 50 27.7829 50 27.5568V16.7614C50 16.5353 49.9102 16.3185 49.7504 16.1587C49.5905 15.9989 49.3738 15.9091 49.1477 15.9091ZM11.6477 30.5909C11.1233 30.5932 10.6101 30.4396 10.1731 30.1498C9.73602 29.86 9.39489 29.4469 9.19292 28.963C8.99094 28.4791 8.93721 27.9461 9.03855 27.4315C9.13989 26.917 9.39173 26.4442 9.76213 26.073C10.1325 25.7018 10.6048 25.4489 11.1191 25.3465C11.6334 25.2441 12.1665 25.2966 12.6509 25.4976C13.1353 25.6985 13.5491 26.0387 13.8398 26.4751C14.1306 26.9116 14.2852 27.4245 14.2841 27.9489C14.2827 28.6442 14.0077 29.3111 13.5187 29.8055C13.0297 30.2998 12.3658 30.582 11.6705 30.5909H11.6477ZM11.6477 23.5966C10.7147 23.6024 9.80826 23.9075 9.06162 24.467C8.31498 25.0264 7.7676 25.8107 7.5 26.7045H1.70455V1.70455H28.9773V26.7045H15.8295C15.5622 25.8084 15.0133 25.0222 14.2642 24.4625C13.5151 23.9027 12.6056 23.5991 11.6705 23.5966H11.6477ZM39.3693 30.5909C38.8454 30.5909 38.3333 30.4355 37.8977 30.1443C37.4622 29.8531 37.1228 29.4392 36.9226 28.9551C36.7224 28.471 36.6703 27.9383 36.7729 27.4245C36.8755 26.9108 37.1283 26.439 37.4991 26.0689C37.87 25.6989 38.3423 25.4472 38.8563 25.3456C39.3702 25.2441 39.9028 25.2974 40.3865 25.4986C40.8702 25.6999 41.2833 26.0402 41.5736 26.4763C41.8638 26.9125 42.0182 27.425 42.017 27.9489C42.0155 28.6501 41.7359 29.3221 41.2395 29.8174C40.7432 30.3127 40.0706 30.5909 39.3693 30.5909ZM48.2955 26.7045H43.5398C43.2674 25.8147 42.7166 25.0357 41.9684 24.4823C41.2202 23.9288 40.3142 23.6301 39.3835 23.6301C38.4529 23.6301 37.5468 23.9288 36.7986 24.4823C36.0505 25.0357 35.4997 25.8147 35.2273 26.7045H30.6818V9.65909H43.1818V16.7614C43.1818 16.9874 43.2716 17.2042 43.4314 17.364C43.5913 17.5238 43.8081 17.6136 44.0341 17.6136H48.2955V26.7045Z" fill="#DC0C1C"/>
</svg>
