<svg width="40" height="48" viewBox="0 0 40 48" fill="none" xmlns="http://www.w3.org/2000/svg">
<path d="M20.3311 27.8776C15.4166 27.8868 10.7062 29.8444 7.23277 33.3211C3.75932 36.7978 1.80618 41.51 1.80157 46.4245C1.80157 46.6557 1.89343 46.8775 2.05693 47.041C2.22043 47.2045 2.44219 47.2963 2.67341 47.2963H38.012C38.2432 47.2963 38.465 47.2045 38.6285 47.041C38.792 46.8775 38.8838 46.6557 38.8838 46.4245C38.8792 41.506 36.9229 36.7903 33.4444 33.3129C29.9659 29.8355 25.2496 27.8806 20.3311 27.8776ZM3.54525 45.5527C3.7574 41.246 5.61758 37.1858 8.74064 34.2128C11.8637 31.2398 16.0105 29.5817 20.3224 29.5817C24.6342 29.5817 28.781 31.2398 31.9041 34.2128C35.0271 37.1858 36.8873 41.246 37.0995 45.5527H3.54525Z" fill="#DC0C1C"/>
<path d="M20.0236 4.67499C17.9033 4.67384 15.8304 5.3016 14.0669 6.47884C12.3035 7.65609 10.9289 9.32993 10.1169 11.2886C9.30502 13.2473 9.09229 15.4027 9.50565 17.4823C9.91901 19.5619 10.9399 21.4722 12.4392 22.9714C13.9384 24.4707 15.8487 25.4916 17.9283 25.905C20.0079 26.3183 22.1634 26.1056 24.122 25.2937C26.0807 24.4817 27.7545 23.1071 28.9318 21.3437C30.109 19.5803 30.7368 17.5073 30.7356 15.387C30.7325 12.5469 29.603 9.82408 27.5947 7.81586C25.5865 5.80764 22.8637 4.67807 20.0236 4.67499ZM20.0236 24.3611C18.2485 24.3623 16.5128 23.8369 15.0363 22.8515C13.5597 21.8661 12.4086 20.465 11.7285 18.8253C11.0483 17.1856 10.8698 15.381 11.2154 13.6398C11.561 11.8986 12.4153 10.299 13.6701 9.04338C14.9249 7.78774 16.5239 6.93246 18.2649 6.58572C20.0059 6.23898 21.8106 6.41636 23.4507 7.09542C25.0909 7.77448 26.4928 8.92471 27.4791 10.4006C28.4655 11.8765 28.9919 13.6118 28.9919 15.387C28.9904 17.7656 28.0452 20.0464 26.3638 21.7289C24.6824 23.4114 22.4022 24.358 20.0236 24.3611Z" fill="#DC0C1C"/>
<path d="M6.84685 21.1411C7.07807 21.1411 7.29983 21.0492 7.46333 20.8857C7.62683 20.7222 7.71869 20.5005 7.71869 20.2693V10.679C7.74811 10.6391 7.77342 10.5962 7.79425 10.5512C8.75898 8.10621 10.4347 6.00673 12.6049 4.52395C14.7751 3.04117 17.3401 2.24323 19.9685 2.23322C22.5969 2.2232 25.1679 3.00158 27.3493 4.46778C29.5308 5.93398 31.2224 8.02064 32.2058 10.4582V20.2809C31.561 21.9054 30.5965 23.3839 29.3694 24.6285C29.2061 24.7919 29.1144 25.0135 29.1144 25.2446C29.1144 25.4756 29.2061 25.6972 29.3694 25.8607C29.5243 26.0148 29.7321 26.1041 29.9506 26.1106C30.066 26.1109 30.1803 26.0885 30.287 26.0446C30.3937 26.0008 30.4907 25.9363 30.5725 25.8548C31.932 24.5044 33.0175 22.9037 33.7693 21.1411H34.1877C35.7292 21.1411 37.2076 20.5287 38.2976 19.4387C39.3876 18.3487 40 16.8703 40 15.3288C40 13.7873 39.3876 12.309 38.2976 11.2189C37.2076 10.1289 35.7292 9.51657 34.1877 9.51657H33.7111C32.561 6.84829 30.6546 4.5753 28.2272 2.97831C25.7999 1.38132 22.9579 0.530273 20.0523 0.530273C17.1467 0.530273 14.3048 1.38132 11.8774 2.97831C9.45003 4.5753 7.54359 6.84829 6.39349 9.51657H5.81226C4.27076 9.51657 2.79238 10.1289 1.70237 11.2189C0.612361 12.309 0 13.7873 0 15.3288C0 16.8703 0.612361 18.3487 1.70237 19.4387C2.79238 20.5287 4.27076 21.1411 5.81226 21.1411H6.84685ZM33.9552 11.2603H34.1645C35.2435 11.2603 36.2784 11.6889 37.0414 12.4519C37.8044 13.2149 38.2331 14.2498 38.2331 15.3288C38.2331 16.4079 37.8044 17.4428 37.0414 18.2058C36.2784 18.9688 35.2435 19.3974 34.1645 19.3974H33.9552V11.2603ZM1.69718 15.3288C1.69718 14.2498 2.12583 13.2149 2.88884 12.4519C3.65185 11.6889 4.68671 11.2603 5.76577 11.2603H5.97501V19.3974H5.76577C4.68671 19.3974 3.65185 18.9688 2.88884 18.2058C2.12583 17.4428 1.69718 16.4079 1.69718 15.3288Z" fill="#DC0C1C"/>
</svg>
