<svg width="40" height="53" viewBox="0 0 40 53" fill="none" xmlns="http://www.w3.org/2000/svg">
<path d="M39.4734 8.99988L20.3249 0.601424C20.2191 0.55451 20.1047 0.530273 19.989 0.530273C19.8732 0.530273 19.7588 0.55451 19.653 0.601424L0.504542 8.99988C0.349811 9.06564 0.218742 9.1769 0.128739 9.31891C0.038736 9.46091 -0.00594283 9.62694 0.000634611 9.79493L0.874074 34.6376C1.10492 37.5363 2.11003 40.3199 3.78437 42.6975C5.45871 45.0751 7.74085 46.9594 10.3923 48.1535L19.653 52.3359C19.7614 52.3876 19.88 52.4145 20.0002 52.4145C20.1203 52.4145 20.2389 52.3876 20.3473 52.3359L29.608 48.1535C32.265 46.9562 34.5507 45.0659 36.2255 42.6808C37.9002 40.2958 38.9022 37.504 39.1262 34.5984L39.9997 9.79493C40.0045 9.62434 39.9565 9.45643 39.8623 9.31413C39.7681 9.17182 39.6323 9.06208 39.4734 8.99988ZM37.4297 34.5032C37.2246 37.1015 36.3256 39.5971 34.8266 41.7294C33.3276 43.8617 31.2836 45.5524 28.9081 46.625L19.989 50.6506L11.0698 46.625C8.70473 45.5571 6.66811 43.8764 5.17082 41.7569C3.67352 39.6375 2.76999 37.1563 2.55376 34.5704L1.69712 10.31L19.989 2.29791L38.2808 10.31L37.4297 34.5032Z" fill="#DC0C1C"/>
<path d="M14.1102 15.8026V18.8932H8.23132C8.00858 18.8932 7.79497 18.9817 7.63746 19.1392C7.47996 19.2967 7.39148 19.5103 7.39148 19.733V35.97C7.39148 36.1928 7.47996 36.4064 7.63746 36.5639C7.79497 36.7214 8.00858 36.8099 8.23132 36.8099H31.747C31.9697 36.8099 32.1834 36.7214 32.3409 36.5639C32.4984 36.4064 32.5868 36.1928 32.5868 35.97V19.733C32.5868 19.5103 32.4984 19.2967 32.3409 19.1392C32.1834 18.9817 31.9697 18.8932 31.747 18.8932H25.8681V15.6066C25.8672 14.8054 25.7029 14.0128 25.3852 13.2773C25.0675 12.5418 24.6031 11.8788 24.0204 11.329C23.4374 10.7747 22.7458 10.3473 21.9894 10.0736C21.2329 9.79991 20.4279 9.68594 19.6252 9.73888C18.1076 9.85964 16.6928 10.5537 15.6685 11.68C14.6441 12.8063 14.0869 14.2803 14.1102 15.8026ZM30.9072 35.1302H9.07117V20.5729H30.9072V35.1302ZM22.867 12.5496C23.286 12.9406 23.6196 13.414 23.847 13.9401C24.0744 14.4661 24.1906 15.0335 24.1884 15.6066V18.8932H15.7899V15.8026C15.7656 14.7105 16.1567 13.6499 16.8842 12.8351C17.6117 12.0203 18.6214 11.512 19.7092 11.413C20.2855 11.3741 20.8636 11.455 21.4071 11.6506C21.9506 11.8462 22.4477 12.1523 22.867 12.5496Z" fill="#DC0C1C"/>
<path d="M19.9893 23.4005C19.3293 23.4123 18.6947 23.6568 18.1976 24.091C17.7004 24.5252 17.3727 25.1211 17.2722 25.7734C17.1718 26.4258 17.305 27.0927 17.6485 27.6563C17.992 28.22 18.5236 28.6441 19.1494 28.8539V31.491C19.1494 31.7138 19.2379 31.9274 19.3954 32.0849C19.5529 32.2424 19.7665 32.3309 19.9893 32.3309C20.212 32.3309 20.4256 32.2424 20.5831 32.0849C20.7406 31.9274 20.8291 31.7138 20.8291 31.491V28.8539C21.4549 28.6441 21.9865 28.22 22.33 27.6563C22.6735 27.0927 22.8068 26.4258 22.7063 25.7734C22.6058 25.1211 22.2781 24.5252 21.7809 24.091C21.2838 23.6568 20.6492 23.4123 19.9893 23.4005ZM19.9893 27.3198C19.7678 27.3198 19.5513 27.2541 19.3671 27.1311C19.183 27.008 19.0395 26.8331 18.9547 26.6285C18.8699 26.4239 18.8478 26.1988 18.891 25.9815C18.9342 25.7643 19.0408 25.5648 19.1974 25.4082C19.354 25.2516 19.5536 25.1449 19.7708 25.1017C19.988 25.0585 20.2132 25.0807 20.4178 25.1654C20.6224 25.2502 20.7973 25.3937 20.9203 25.5779C21.0434 25.762 21.1091 25.9785 21.1091 26.2C21.1091 26.497 20.9911 26.7818 20.7811 26.9918C20.5711 27.2018 20.2862 27.3198 19.9893 27.3198Z" fill="#DC0C1C"/>
</svg>
