<svg width="21" height="27" viewBox="0 0 21 27" fill="none" xmlns="http://www.w3.org/2000/svg">
<path d="M19.6593 5.60398L14.5745 0.793441C14.0336 0.28176 13.3257 0 12.5812 0H2.90039C1.30112 0 0 1.30112 0 2.90039V24.0996C0 25.6989 1.30112 27 2.90039 27H17.666C19.2653 27 20.5664 25.6989 20.5664 24.0996V7.71093C20.5664 6.91733 20.2358 6.14936 19.6593 5.60398ZM18.1227 6.32812H14.1855C14.0402 6.32812 13.9219 6.20984 13.9219 6.06445V2.35385L18.1227 6.32812ZM17.666 25.418H2.90039C2.17345 25.418 1.58203 24.8266 1.58203 24.0996V2.90039C1.58203 2.17345 2.17345 1.58203 2.90039 1.58203H12.3398V6.06445C12.3398 7.08217 13.1678 7.91016 14.1855 7.91016H18.9844V24.0996C18.9844 24.8266 18.393 25.418 17.666 25.418Z" fill="#DC0C1C"/>
<path d="M15.9258 10.5469H4.32422C3.88737 10.5469 3.5332 10.901 3.5332 11.3379C3.5332 11.7747 3.88737 12.1289 4.32422 12.1289H15.9258C16.3626 12.1289 16.7168 11.7747 16.7168 11.3379C16.7168 10.901 16.3626 10.5469 15.9258 10.5469Z" fill="#DC0C1C"/>
<path d="M15.9258 14.7656H4.32422C3.88737 14.7656 3.5332 15.1198 3.5332 15.5566C3.5332 15.9935 3.88737 16.3477 4.32422 16.3477H15.9258C16.3626 16.3477 16.7168 15.9935 16.7168 15.5566C16.7168 15.1198 16.3626 14.7656 15.9258 14.7656Z" fill="#DC0C1C"/>
<path d="M8.15906 18.9844H4.32422C3.88737 18.9844 3.5332 19.3385 3.5332 19.7754C3.5332 20.2122 3.88737 20.5664 4.32422 20.5664H8.15906C8.59591 20.5664 8.95008 20.2122 8.95008 19.7754C8.95008 19.3385 8.59591 18.9844 8.15906 18.9844Z" fill="#DC0C1C"/>
</svg>
