<svg width="25" height="25" viewBox="0 0 25 25" fill="none" xmlns="http://www.w3.org/2000/svg">
<path d="M13.8367 10.5729V10.5435C13.8306 10.5531 13.8227 10.5635 13.8169 10.5729H13.8367Z" fill="white"/>
<path d="M12.5 0C5.59651 0 0 5.59651 0 12.5C0 19.4035 5.59651 25 12.5 25C19.4035 25 25 19.4035 25 12.5C25 5.59651 19.4035 0 12.5 0ZM9.15295 18.3282H6.1377V9.25738H9.15295V18.3282V18.3282ZM7.64545 8.0196H7.62517C6.61376 8.0196 5.95824 7.32225 5.95824 6.45152C5.95824 5.56153 6.63327 4.88446 7.66522 4.88446C8.69717 4.88446 9.33165 5.56127 9.35143 6.45152C9.35143 7.32251 8.69743 8.0196 7.64545 8.0196ZM20.0273 18.3282H17.0118V13.4752C17.0118 12.2561 16.5756 11.4242 15.4843 11.4242C14.6511 11.4242 14.1553 11.9849 13.937 12.5274C13.8574 12.7213 13.8369 12.9913 13.8369 13.2625V18.3282H10.8204C10.8204 18.3282 10.8609 10.1088 10.8204 9.25738H13.8364V10.5431C14.2372 9.92583 14.9528 9.0442 16.5545 9.0442C18.5391 9.0442 20.0268 10.3405 20.0268 13.1269V18.3282H20.0273Z" fill="white"/>
</svg>
