<svg width="25" height="25" viewBox="0 0 25 25" fill="none" xmlns="http://www.w3.org/2000/svg">
<path d="M12.5 0C5.59651 0 0 5.59651 0 12.5C0 19.4035 5.59651 25 12.5 25C19.4035 25 25 19.4035 25 12.5C25 5.59651 19.4035 0 12.5 0ZM12.0772 6.51337C12.1695 6.5116 12.266 6.5258 12.3489 6.52554C12.3826 6.52529 12.4138 6.52275 12.4409 6.51591C15.426 6.6244 18.0309 9.33799 17.9766 12.3231C17.9766 12.5943 18.0851 13.0285 17.6509 13.0285C17.2167 13.0285 17.3251 12.5943 17.3251 12.2688C17.2777 11.8754 17.2131 11.5081 17.1307 11.1659C17.0483 10.8237 16.9477 10.5063 16.8283 10.2125C16.6488 9.77171 16.4268 9.38387 16.1578 9.04445C15.3515 8.02594 14.1266 7.44215 12.3864 7.16737C12.1152 7.11313 11.7352 7.16737 11.7352 6.84164C11.7352 6.55976 11.8977 6.51312 12.0772 6.51337ZM16.1855 12.4316C15.697 12.4858 15.8055 12.0516 15.7512 11.7803C15.4255 9.88071 14.7743 9.17525 12.8207 8.74103C12.5492 8.68678 12.1152 8.74103 12.1695 8.3068C12.2237 7.87258 12.6579 8.03557 12.9292 8.08982C14.883 8.3068 16.4569 9.93496 16.4569 11.7803C16.4024 11.9973 16.5654 12.3773 16.1855 12.4316ZM14.9915 11.4546C14.9915 11.6716 14.9915 11.9431 14.6658 11.9973C14.4488 11.9973 14.3401 11.8346 14.2858 11.6174C14.2316 10.8034 13.7974 10.3692 12.9834 10.2604C12.7664 10.2062 12.4949 10.1519 12.6034 9.82621C12.6577 9.60922 12.8747 9.60922 13.0919 9.60922C14.0146 9.55523 14.9915 10.5322 14.9915 11.4546ZM18.0306 17.4248C17.7049 18.3475 16.5652 19.2699 15.5882 19.2699C15.4798 19.2157 15.2083 19.2157 14.937 19.1072C10.7038 17.262 7.55597 14.277 5.81932 9.93521C5.22236 8.52404 5.87357 7.27587 7.33898 6.78739C7.61022 6.6789 7.8817 6.6789 8.15293 6.78739C8.80414 7.00438 10.3781 9.22975 10.4323 9.88096C10.4865 10.4237 10.1066 10.6949 9.78109 10.9122C9.12988 11.3464 9.12988 11.9433 9.40111 12.5403C10.0523 13.9515 11.1378 14.8739 12.4947 15.5254C12.9831 15.7424 13.4716 15.7424 13.7971 15.1996C14.3941 14.277 15.1538 14.277 15.968 14.8739C16.3479 15.1451 16.7819 15.4166 17.1619 15.7424C17.7051 16.1763 18.3563 16.5563 18.0306 17.4248Z" fill="white"/>
</svg>
