<svg width="25" height="25" viewBox="0 0 25 25" fill="none" xmlns="http://www.w3.org/2000/svg">
<path d="M13.0091 5.29346C9.52613 5.29346 6.69365 8.12568 6.69238 11.6071C6.69188 12.8003 7.02572 13.962 7.65767 14.9673L7.80773 15.2061L7.16995 17.5362L9.55959 16.9093L9.79026 17.0462C10.7596 17.6216 11.8709 17.9258 13.004 17.9263H13.0065C16.4867 17.9263 19.3191 15.0938 19.3206 11.6122C19.3214 9.92494 18.6651 8.33861 17.473 7.14519C16.2808 5.95151 14.6955 5.29396 13.0091 5.29346ZM16.7232 14.3217C16.565 14.765 15.8065 15.1699 15.442 15.2241C15.115 15.273 14.7011 15.2933 14.2466 15.1488C13.971 15.0614 13.6174 14.9445 13.1644 14.7491C11.26 13.927 10.0164 12.0096 9.92157 11.8831C9.82676 11.7564 9.1464 10.854 9.1464 9.91961C9.1464 8.98526 9.63665 8.52619 9.81079 8.33607C9.98469 8.14596 10.1905 8.09855 10.317 8.09855C10.4435 8.09855 10.5702 8.09982 10.6808 8.10515C10.7974 8.11098 10.9538 8.06104 11.1079 8.43088C11.2661 8.81111 11.6458 9.74521 11.6932 9.84027C11.7406 9.93533 11.7723 10.0461 11.7089 10.1728C11.6455 10.2993 11.6141 10.3787 11.519 10.4895C11.424 10.6002 11.3198 10.7369 11.2344 10.822C11.1393 10.9166 11.0405 11.0195 11.1512 11.2094C11.262 11.3995 11.643 12.021 12.2073 12.5242C12.9322 13.1708 13.5439 13.3714 13.7338 13.4664C13.9236 13.5615 14.0344 13.5455 14.1449 13.419C14.2557 13.2923 14.6195 12.8646 14.746 12.6748C14.8724 12.4849 14.9989 12.5163 15.1731 12.5797C15.347 12.6431 16.2803 13.1022 16.4702 13.1972C16.66 13.2923 16.7865 13.3397 16.8339 13.419C16.8813 13.4981 16.8813 13.8783 16.7232 14.3217Z" fill="white"/>
<path d="M12.5 0C5.59651 0 0 5.59651 0 12.5C0 19.4035 5.59651 25 12.5 25C19.4035 25 25 19.4035 25 12.5C25 5.59651 19.4035 0 12.5 0ZM13.0065 19.2091C13.0062 19.2091 13.0067 19.2091 13.0065 19.2091H13.0034C11.7319 19.2086 10.4827 18.8897 9.37323 18.2843L5.34606 19.3409L6.42389 15.4042C5.75899 14.2521 5.40918 12.9451 5.40994 11.6065C5.41121 7.41782 8.81936 4.01018 13.0065 4.01018C15.0387 4.01094 16.9462 4.80208 18.3804 6.23809C19.8147 7.67384 20.6043 9.58261 20.6033 11.6125C20.6015 15.8012 17.1933 19.2091 13.0065 19.2091Z" fill="white"/>
</svg>
