<svg width="25" height="25" viewBox="0 0 25 25" fill="none" xmlns="http://www.w3.org/2000/svg">
<path d="M11.0814 14.3291L14.9524 12.2756L11.0814 10.2637V14.3291Z" fill="white"/>
<path d="M12.5 0C5.59651 0 0 5.59651 0 12.5C0 19.4035 5.59651 25 12.5 25C19.4035 25 25 19.4035 25 12.5C25 5.59651 19.4035 0 12.5 0ZM19.4793 15.4113C19.3127 16.4658 18.803 17.0384 17.731 17.1596C16.533 17.295 13.8394 17.3573 12.6422 17.3573C11.4034 17.3573 8.89794 17.3054 7.64723 17.2012C6.57218 17.1117 5.83859 16.5112 5.69081 15.4425C5.58333 14.6643 5.51387 13.7393 5.51387 12.2686C5.51387 10.6313 5.57293 9.9385 5.71159 9.19883C5.90957 8.1433 6.4135 7.63202 7.56383 7.51313C8.77094 7.38816 9.91214 7.3258 12.4653 7.3258C13.7134 7.3258 16.4045 7.39044 17.6476 7.50274C18.7333 7.60084 19.3449 8.26498 19.479 9.3238C19.5726 10.0627 19.656 11.1205 19.656 12.2584C19.6562 14.2562 19.4793 15.4113 19.4793 15.4113Z" fill="white"/>
</svg>
